<svg xmlns="http://www.w3.org/2000/svg" width="40.991" height="48.144" viewBox="0 0 40.991 48.144"><defs><style>.a,.b,.d{fill:#fff;}.b{stroke:#fff;stroke-width:2px;}.c,.d{stroke:none;}</style></defs><g transform="translate(-34.978 0.5)"><g transform="translate(35.479 0)"><g class="a" transform="translate(-35.479 0)"><path class="c" d="M 44.08032989501953 47.39437103271484 C 43.89268493652344 47.39437103271484 43.70878982543945 47.34442520141602 43.54787826538086 47.24983978271484 C 43.26648712158203 47.10543060302734 43.07866287231445 46.82775497436523 43.01848220825195 46.46673965454102 L 43.01802062988281 46.4639892578125 L 43.01763153076172 46.46121978759766 L 42.17543792724609 40.6041374206543 L 36.70236968994141 42.78570938110352 L 36.69882202148438 42.7871208190918 L 36.69523239135742 42.78842926025391 C 36.56706237792969 42.83504104614258 36.43415069580078 42.85866928100586 36.3001823425293 42.85866928100586 C 35.83943176269531 42.85866928100586 35.4412727355957 42.58242034912109 35.28580093383789 42.15489959716797 L 35.28279113769531 42.14661026000977 L 35.28037261962891 42.13814163208008 C 35.18513107299805 41.80479049682617 35.22500991821289 41.44454193115234 35.38705062866211 41.17447280883789 L 42.51349639892578 28.83251953125 C 39.63634872436523 25.64159965515137 38.05387115478516 21.51188087463379 38.05387115478516 17.18273162841797 C 38.05387115478516 12.53811073303223 39.87045288085938 8.163631439208984 43.16897201538086 4.865110874176025 C 46.46750259399414 1.566591143608093 50.84197998046875 -0.2499888986349106 55.48660278320312 -0.2499888986349106 C 60.13121032714844 -0.2499888986349106 64.50569152832031 1.566591143608093 67.80422210693359 4.865110874176025 C 71.10274505615234 8.163640975952148 72.91931915283203 12.53812122344971 72.91931915283203 17.18273162841797 C 72.91931915283203 21.51188087463379 71.33684539794922 25.64159965515137 68.45969390869141 28.83251953125 L 75.58826446533203 41.17808151245117 C 75.78533935546875 41.5064582824707 75.75597381591797 41.88558578491211 75.50965881347656 42.19724655151367 C 75.34390258789062 42.6005973815918 74.95704650878906 42.85866928100586 74.51172637939453 42.85866928100586 C 74.51169586181641 42.85866928100586 74.51168060302734 42.85866928100586 74.51165008544922 42.85866928100586 C 74.37767028808594 42.85866165161133 74.24475860595703 42.83502960205078 74.11660766601562 42.78842926025391 L 74.11302947998047 42.7871208190918 L 74.10948181152344 42.78570938110352 L 68.63641357421875 40.60414123535156 L 67.79424285888672 46.46121978759766 L 67.79383850097656 46.4639892578125 L 67.79338073730469 46.46675109863281 C 67.73257446289062 46.83148193359375 67.54145050048828 47.11116027832031 67.25523376464844 47.2542724609375 C 67.09534454345703 47.33422088623047 66.91502380371094 47.37647247314453 66.7337646484375 47.37647247314453 C 66.32643127441406 47.37647247314453 65.96215057373047 47.17465972900391 65.75933074951172 46.83661270141602 L 58.54524230957031 34.36148452758789 C 57.46463012695312 34.55944442749023 56.43586349487305 34.65579986572266 55.40592956542969 34.65579986572266 C 54.40597152709961 34.65579986572266 53.32436752319336 34.55419158935547 52.26665496826172 34.36140823364258 L 45.05457305908203 46.8331413269043 C 44.84609985351562 47.1806526184082 44.47358322143555 47.39437103271484 44.08032989501953 47.39437103271484 Z M 43.06412124633789 37.94388198852539 C 43.62194061279297 37.94388198852539 44.09827041625977 38.33699035644531 44.19674301147461 38.87860107421875 L 44.19740295410156 38.88225936889648 L 44.19795989990234 38.88593292236328 L 44.81676483154297 42.97685241699219 L 50.11291885375977 33.7453498840332 C 47.94063949584961 33.04854965209961 45.88576507568359 31.89751243591309 44.13616180419922 30.39732933044434 L 38.84001159667969 39.55525588989258 L 42.638671875 38.04948425292969 C 42.72964859008789 38.00406646728516 42.84110260009766 37.95048904418945 42.97105026245117 37.94741821289062 C 43.0020637512207 37.945068359375 43.03332901000977 37.94388198852539 43.06412124633789 37.94388198852539 Z M 60.86027526855469 33.74535751342773 L 66.15643310546875 42.97685241699219 L 66.77522277832031 38.88594055175781 C 66.86582946777344 38.34218215942383 67.32913970947266 37.93494033813477 67.85350799560547 37.93494033813477 C 67.90753936767578 37.93494033813477 67.96186828613281 37.93930053710938 68.01529693603516 37.94791412353516 C 68.13965606689453 37.95412445068359 68.24667358398438 38.00563430786133 68.33455657958984 38.04949569702148 L 72.1331787109375 39.55525588989258 L 66.83702850341797 30.3973388671875 C 65.08743286132812 31.89751243591309 63.03256225585938 33.04854965209961 60.86027526855469 33.74535751342773 Z M 55.48660278320312 1.94408106803894 C 51.3875732421875 1.94408106803894 47.56927108764648 3.550171136856079 44.73508071899414 6.466501235961914 C 43.34200286865234 7.859631061553955 42.2489128112793 9.483410835266113 41.48368072509766 11.29529094696045 C 40.69047164916992 13.17340087890625 40.28828048706055 15.16779136657715 40.28828048706055 17.22307014465332 C 40.28828048706055 19.27835083007812 40.69047164916992 21.27274131774902 41.48368072509766 23.15084075927734 C 42.2489128112793 24.96272087097168 43.34200286865234 26.58650016784668 44.73258209228516 27.97708129882812 C 46.12316131591797 29.36767196655273 47.74694061279297 30.46076202392578 49.55882263183594 31.22599029541016 C 51.43693161010742 32.01919937133789 53.43132019042969 32.42139053344727 55.48660278320312 32.42139053344727 C 59.58562088012695 32.42139053344727 63.40392303466797 30.8153018951416 66.23812103271484 27.89897155761719 C 67.63120269775391 26.50584030151367 68.72428131103516 24.88206100463867 69.48952484130859 23.07018089294434 C 70.28272247314453 21.19207191467285 70.68491363525391 19.19767189025879 70.68491363525391 17.14240074157715 C 70.68491363525391 15.08713150024414 70.28272247314453 13.09273147583008 69.48952484130859 11.21462154388428 C 68.72428131103516 9.402741432189941 67.63120269775391 7.778961181640625 66.24062347412109 6.388381004333496 C 64.85002899169922 4.997801303863525 63.22624969482422 3.904711008071899 61.41438293457031 3.139481067657471 C 59.53627014160156 2.34627103805542 57.5418701171875 1.94408106803894 55.48660278320312 1.94408106803894 Z"/><path class="d" d="M 44.08032989501953 47.14437484741211 C 44.37895965576172 47.14437484741211 44.6737060546875 46.98207092285156 44.83815002441406 46.70799255371094 L 52.13879013061523 34.08312225341797 C 53.1875 34.2847900390625 54.3168830871582 34.40579986572266 55.40592956542969 34.40579986572266 C 56.53531265258789 34.40579986572266 57.62436294555664 34.2847900390625 58.67306137084961 34.08312225341797 L 65.97370147705078 46.70799255371094 C 66.13853454589844 46.98270797729492 66.43441009521484 47.12647247314453 66.73375701904297 47.12647247314453 C 66.87392425537109 47.12647247314453 67.01478576660156 47.09498596191406 67.14342498779297 47.03067016601562 C 67.38542938232422 46.90966033935547 67.50643157958984 46.66765213012695 67.54678344726562 46.42564010620117 L 68.43412780761719 40.25437927246094 L 74.20204925537109 42.55348205566406 C 74.30457305908203 42.59076309204102 74.40931701660156 42.60866165161133 74.51166534423828 42.60866928100586 C 74.85225677490234 42.60869216918945 75.16703796386719 42.41061401367188 75.29109954833984 42.06946182250977 C 75.53310394287109 41.787109375 75.49277496337891 41.5047607421875 75.37176513671875 41.30309295654297 L 68.15179443359375 28.79923057556152 C 70.97524261474609 25.73376083374023 72.66931915283203 21.65992164611816 72.66931915283203 17.18273162841797 C 72.66931915283203 12.42320156097412 70.73323059082031 8.14768123626709 67.62744140625 5.041891098022461 C 64.52164459228516 1.936091065406799 60.24612045288086 1.109497043216834e-05 55.48660278320312 1.109497043216834e-05 C 50.7270622253418 1.109497043216834e-05 46.4515495300293 1.936091065406799 43.34575271606445 5.041891098022461 C 40.23995208740234 8.14768123626709 38.30387115478516 12.42320156097412 38.30387115478516 17.18273162841797 C 38.30387115478516 21.65992164611816 39.99795150756836 25.73376083374023 42.8213996887207 28.79923057556152 L 35.60142135620117 41.30309295654297 C 35.48042297363281 41.5047607421875 35.44008255004883 41.787109375 35.520751953125 42.06946182250977 C 35.64479827880859 42.41058731079102 35.95962142944336 42.60866928100586 36.30017852783203 42.60866928100586 C 36.40256118774414 42.60866928100586 36.50724792480469 42.59077453613281 36.60980224609375 42.55348205566406 L 42.37771224975586 40.25437927246094 L 43.26507949829102 46.42564010620117 C 43.305419921875 46.66765213012695 43.42642211914062 46.90966033935547 43.66843032836914 47.03067016601562 C 43.79770278930664 47.10823059082031 43.93947601318359 47.14437484741211 44.08032989501953 47.14437484741211 M 66.90141296386719 30.00928115844727 L 72.70966339111328 40.05270004272461 L 68.23246765136719 38.27796173095703 C 68.15179443359375 38.23763275146484 68.07112884521484 38.19729232788086 67.99044799804688 38.19729232788086 C 67.94468688964844 38.18897247314453 67.89887237548828 38.18494033813477 67.85350799560547 38.18494033813477 C 67.45906066894531 38.18494033813477 67.09477233886719 38.48922729492188 67.02240753173828 38.92333221435547 L 66.29639434814453 43.72319030761719 L 60.48814010620117 33.59910202026367 C 62.90822982788086 32.87306976318359 65.08633422851562 31.62269020080566 66.90141296386719 30.00928115844727 M 43.06412506103516 38.19387817382812 C 43.03726959228516 38.19387817382812 43.01014709472656 38.19499588012695 42.98273086547852 38.19728088378906 C 42.90207290649414 38.19728088378906 42.8213996887207 38.23762130737305 42.74072265625 38.27796173095703 L 38.26353073120117 40.05270004272461 L 44.07178115844727 30.0092716217041 C 45.88685989379883 31.6226806640625 48.0649528503418 32.87306213378906 50.48505020141602 33.59909057617188 L 44.67681121826172 43.72319030761719 L 43.95077133178711 38.92332077026367 C 43.87467956542969 38.5047721862793 43.51138305664062 38.19387817382812 43.06412506103516 38.19387817382812 M 55.48660278320312 1.69408106803894 C 59.76211166381836 1.69408106803894 63.63426971435547 3.428491115570068 66.41740417480469 6.211601257324219 C 69.20050048828125 8.994721412658691 70.93491363525391 12.8668909072876 70.93491363525391 17.14240074157715 C 70.93491363525391 21.41791152954102 69.20050048828125 25.29008102416992 66.41740417480469 28.07320022583008 C 63.63426971435547 30.93698120117188 59.76211166381836 32.67139053344727 55.48660278320312 32.67139053344727 C 51.21108245849609 32.67139053344727 47.33892059326172 30.93698120117188 44.55580139160156 28.15386199951172 C 41.77268981933594 25.37074089050293 40.03828048706055 21.49858093261719 40.03828048706055 17.22307014465332 C 40.03828048706055 12.94756126403809 41.77268981933594 9.075390815734863 44.55580139160156 6.292271137237549 C 47.33892059326172 3.428491115570068 51.21108245849609 1.69408106803894 55.48660278320312 1.69408106803894 M 44.08032989501953 47.64437103271484 C 43.85050964355469 47.64437103271484 43.62515258789062 47.58377838134766 43.42732620239258 47.46894454956055 C 43.08230972290039 47.28893280029297 42.84389114379883 46.93982696533203 42.77188110351562 46.50785064697266 L 42.77097320556641 46.50234222412109 L 42.77017211914062 46.49679946899414 L 41.97315216064453 40.95389556884766 L 36.79494094848633 43.01794052124023 L 36.787841796875 43.02077102661133 L 36.78067016601562 43.02338027954102 C 36.62503051757812 43.07997131347656 36.46337127685547 43.10866928100586 36.3001823425293 43.10866928100586 C 35.73306274414062 43.10866928100586 35.24267196655273 42.76782989501953 35.05084991455078 42.24032974243164 L 35.04483032226562 42.22377014160156 L 35.03998947143555 42.20682144165039 C 34.92485809326172 41.80384063720703 34.97235870361328 41.38246917724609 35.17025756835938 41.04989242553711 L 42.20659255981445 28.86407279968262 C 39.3647346496582 25.64621734619141 37.80387115478516 21.51275825500488 37.80387115478516 17.18273162841797 C 37.80387115478516 12.4713306427002 39.64645004272461 8.03407096862793 42.99220275878906 4.68834114074707 C 46.33794021606445 1.342591047286987 50.77519989013672 -0.4999889135360718 55.48660278320312 -0.4999889135360718 C 60.19799041748047 -0.4999889135360718 64.63525390625 1.342591047286987 67.98098754882812 4.68834114074707 C 71.32674407958984 8.03408145904541 73.16931915283203 12.47134113311768 73.16931915283203 17.18273162841797 C 73.16931915283203 21.51275825500488 71.60845947265625 25.64621734619141 68.7666015625 28.86407470703125 L 75.80287933349609 41.04980850219727 C 76.04990386962891 41.46477127075195 76.02024078369141 41.93513870239258 75.72704315185547 42.32480239868164 C 75.51554107666016 42.80391693115234 75.04792022705078 43.10866928100586 74.51171875 43.10866928100586 C 74.34844970703125 43.10865020751953 74.18679809570312 43.07995986938477 74.03118896484375 43.02338027954102 L 74.02400970458984 43.02077102661133 L 74.01691436767578 43.01794052124023 L 68.83869171142578 40.95389556884766 L 68.04169464111328 46.49679946899414 L 68.0408935546875 46.50234985351562 L 68.03997039794922 46.50786972045898 C 67.96674346923828 46.94710159301758 67.72145843505859 47.30066299438477 67.36703491210938 47.47788238525391 C 67.17259216308594 47.57509231567383 66.95362091064453 47.62647247314453 66.7337646484375 47.62647247314453 C 66.23779296875 47.62647247314453 65.79338073730469 47.37928009033203 65.54495239257812 46.96524047851562 L 65.54288482666016 46.9617805480957 L 65.54086303710938 46.95829010009766 L 58.41659545898438 34.63842391967773 C 57.38414001464844 34.81816864013672 56.3957405090332 34.90579986572266 55.40592956542969 34.90579986572266 C 54.44584655761719 34.90579986572266 53.41221237182617 34.81361770629883 52.39541625976562 34.63814926147461 L 45.27099227905273 46.95829010009766 L 45.26897048950195 46.9617805480957 L 45.26690292358398 46.96524047851562 C 45.01555252075195 47.38414001464844 44.56089019775391 47.64437103271484 44.08032989501953 47.64437103271484 Z M 43.06412124633789 37.69388198852539 C 43.74283981323242 37.69388198852539 44.3226203918457 38.17332077026367 44.44271087646484 38.83389282226562 L 44.44404220581055 38.84120178222656 L 44.44515228271484 38.84854125976562 L 44.95671844482422 42.23052215576172 L 49.74371337890625 33.88651275634766 C 47.74209213256836 33.2041130065918 45.84711074829102 32.14187240600586 44.20322418212891 30.78073120117188 L 39.41646194458008 39.05783843994141 L 42.53655242919922 37.82104873657227 C 42.63789367675781 37.77069091796875 42.78241348266602 37.7034912109375 42.95829010009766 37.69768524169922 C 42.99357986450195 37.69515609741211 43.02910614013672 37.69388198852539 43.06412124633789 37.69388198852539 Z M 61.2294807434082 33.88652038574219 L 66.0164794921875 42.23051834106445 L 66.52803039550781 38.84855270385742 L 66.52860260009766 38.84482955932617 L 66.52921295166016 38.84112167358398 C 66.63909149169922 38.18199157714844 67.20841217041016 37.68494033813477 67.85350799560547 37.68494033813477 C 67.91649627685547 37.68494033813477 67.97980499267578 37.689697265625 68.04220581054688 37.6990966796875 C 68.20577239990234 37.71047973632812 68.34061431884766 37.77334213256836 68.43662261962891 37.82104110717773 L 71.55673217773438 39.05783843994141 L 66.76997375488281 30.78074264526367 C 65.12609100341797 32.14188385009766 63.23110198974609 33.20412445068359 61.2294807434082 33.88652038574219 Z M 55.48660278320312 2.19408106803894 C 51.4556999206543 2.19408106803894 47.70107269287109 3.773271083831787 44.91437149047852 6.640740871429443 L 44.91188049316406 6.643301010131836 L 44.90935134887695 6.645821094512939 C 43.54169082641602 8.013501167297363 42.46660995483398 9.610530853271484 41.71398162841797 11.3925609588623 C 40.93384170532227 13.23972129821777 40.53828048706055 15.20139122009277 40.53828048706055 17.22307014465332 C 40.53828048706055 19.2447509765625 40.93384170532227 21.2064208984375 41.71398162841797 23.05358123779297 C 42.46660995483398 24.83560180664062 43.54168319702148 26.43263053894043 44.90935134887695 27.80031204223633 C 46.27703094482422 29.1679801940918 47.87406158447266 30.24306106567383 49.65608215332031 30.99569129943848 C 51.50324249267578 31.77583122253418 53.46491241455078 32.17139053344727 55.48660278320312 32.17139053344727 C 59.51749038696289 32.17139053344727 63.27212142944336 30.59220123291016 66.05883026123047 27.7247314453125 L 66.06132507324219 27.72217178344727 L 66.06385040283203 27.71965026855469 C 67.43151092529297 26.35197067260742 68.506591796875 24.75494194030762 69.25920867919922 22.9729118347168 C 70.03935241699219 21.12575149536133 70.43491363525391 19.16408157348633 70.43491363525391 17.14240074157715 C 70.43491363525391 15.12072086334229 70.03935241699219 13.15905094146729 69.25920867919922 11.31189155578613 C 68.506591796875 9.529861450195312 67.43151092529297 7.932831287384033 66.06385040283203 6.565151214599609 C 64.69617462158203 5.197481155395508 63.0991325378418 4.122401237487793 61.31711196899414 3.369781017303467 C 59.46995162963867 2.589641094207764 57.50828170776367 2.19408106803894 55.48660278320312 2.19408106803894 Z"/></g></g><path class="b" d="M8.071,14.362a.947.947,0,0,1-.624-.234c-.652-.57-1.281-1.106-1.836-1.579l0,0A34.137,34.137,0,0,1,1.6,8.784,6.008,6.008,0,0,1,0,4.851,5.045,5.045,0,0,1,1.281,1.406,4.341,4.341,0,0,1,4.51,0,4.06,4.06,0,0,1,7.046.876,5.189,5.189,0,0,1,8.071,1.946,5.19,5.19,0,0,1,9.1.876,4.06,4.06,0,0,1,11.633,0a4.341,4.341,0,0,1,3.229,1.405,5.045,5.045,0,0,1,1.28,3.446,6.008,6.008,0,0,1-1.6,3.933,34.133,34.133,0,0,1-4.007,3.762c-.556.473-1.185,1.01-1.839,1.582a.947.947,0,0,1-.624.234ZM4.51.946a3.406,3.406,0,0,0-2.534,1.1,4.1,4.1,0,0,0-1.03,2.8,5.055,5.055,0,0,0,1.384,3.33,33.593,33.593,0,0,0,3.893,3.646l0,0c.557.475,1.188,1.012,1.845,1.587.661-.576,1.293-1.114,1.851-1.59a33.6,33.6,0,0,0,3.893-3.645A5.056,5.056,0,0,0,15.2,4.851a4.1,4.1,0,0,0-1.03-2.8,3.405,3.405,0,0,0-2.534-1.1,3.136,3.136,0,0,0-1.958.678A4.589,4.589,0,0,0,8.584,2.886a.6.6,0,0,1-1.025,0A4.584,4.584,0,0,0,6.468,1.624,3.136,3.136,0,0,0,4.51.946Zm0,0" transform="translate(47.202 9.857)"/></g></svg>