<svg xmlns="http://www.w3.org/2000/svg" width="69.129" height="41.015" viewBox="0 0 69.129 41.015"><defs><style>.a,.b,.c{fill:#fff;}.a,.c{stroke:#fff;}.a{stroke-width:0.5px;}</style></defs><g transform="translate(7.238 -93.812)"><g transform="translate(-2.407 94.062)"><path class="a" d="M59.565,111.238,57.906,104.6a1,1,0,0,0,.794-.981v-1.07a4.217,4.217,0,0,0-4.212-4.212H46.933V96.135a2.075,2.075,0,0,0-2.073-2.073H8.011a2.075,2.075,0,0,0-2.073,2.073L4.279,114.32a1,1,0,0,0,2.006,0l1.66-18.185a.067.067,0,0,1,.067-.067H44.86a.067.067,0,0,1,.067.067V114.32a1,1,0,0,0,2.006,0v-1.137H58.768c.543,0,2.685.224,3.274,2.14.833,2.7,0,8.064,0,10.83H59.42a6.349,6.349,0,0,0-12,0h-.483V118.6a1,1,0,1,0-2.006,0v7.555H24.12a6.349,6.349,0,0,0-12,0H6.351a.067.067,0,0,1-.067-.067V123.88H10.63a1,1,0,1,0,0-2.006H1a1,1,0,1,0,0,2.006H4.279v2.206a2.075,2.075,0,0,0,2.073,2.073h5.417c0,.022,0,.044,0,.067a6.351,6.351,0,1,0,12.7,0c0-.023,0-.045,0-.067h22.6c0,.022,0,.044,0,.067a6.351,6.351,0,1,0,12.7,0c0-.023,0-.045,0-.067h3.278a1,1,0,0,0,1-1v-10.7A5.29,5.29,0,0,0,59.565,111.238ZM46.933,100.347h7.555a2.209,2.209,0,0,1,2.206,2.206v.067H46.933Zm0,10.831v-6.552h8.911l1.638,6.552ZM18.118,132.571a4.346,4.346,0,0,1,0-8.691,4.346,4.346,0,0,1,0,8.691Zm35.3,0a4.346,4.346,0,1,1,4.346-4.346A4.351,4.351,0,0,1,53.418,132.571Z" transform="translate(0 -94.062)"/></g><g transform="translate(13.638 126.153)"><path class="b" d="M130.34,350.6a2.073,2.073,0,1,0,2.073,2.073A2.075,2.075,0,0,0,130.34,350.6Z" transform="translate(-128.267 -350.597)"/></g><g transform="translate(48.938 126.153)"><path class="b" d="M412.528,350.6a2.073,2.073,0,1,0,2.073,2.073A2.075,2.075,0,0,0,412.528,350.6Z" transform="translate(-410.455 -350.597)"/></g><g transform="translate(-7.238 110.254)"><g transform="translate(0)"><path class="b" d="M30.941,282.188H18.1a1,1,0,0,0,0,2.006H30.941a1,1,0,0,0,0-2.006Z" transform="translate(-17.102 -274.846)"/><path class="b" d="M24.022,282.188H17.6c-.277,0-.5.449-.5,1s.224,1,.5,1h6.418c.277,0,.5-.449.5-1S24.3,282.188,24.022,282.188Z" transform="translate(-17.102 -282.188)"/></g></g><g transform="translate(15.778 103.689)"><path class="c" d="M162.057,171.316a1,1,0,0,0-1.418,0l-8.918,8.918-4.639-4.639a1,1,0,0,0-1.418,1.418l5.349,5.349a1,1,0,0,0,1.418,0l9.627-9.627A1,1,0,0,0,162.057,171.316Z" transform="translate(-145.37 -171.023)"/></g></g></svg>